<svg width="19" height="19" viewBox="0 0 19 19" fill="none" xmlns="http://www.w3.org/2000/svg">
<g clip-path="url(#clip0_238_280)">
<path d="M9.12891 2.18085C11.1667 2.18085 11.4209 2.18835 12.2204 2.22585C13.0192 2.26335 13.5629 2.3886 14.0414 2.5746C14.5364 2.7651 14.9534 3.0231 15.3704 3.43935C15.7518 3.81427 16.0469 4.26779 16.2352 4.76835C16.4204 5.2461 16.5464 5.7906 16.5839 6.58935C16.6192 7.38885 16.6289 7.6431 16.6289 9.68085C16.6289 11.7186 16.6214 11.9728 16.5839 12.7723C16.5464 13.5711 16.4204 14.1148 16.2352 14.5933C16.0474 15.0942 15.7522 15.5478 15.3704 15.9223C14.9954 16.3036 14.5419 16.5987 14.0414 16.7871C13.5637 16.9723 13.0192 17.0983 12.2204 17.1358C11.4209 17.1711 11.1667 17.1808 9.12891 17.1808C7.09116 17.1808 6.83691 17.1733 6.03741 17.1358C5.23866 17.0983 4.69491 16.9723 4.21641 16.7871C3.71565 16.5992 3.26205 16.3041 2.88741 15.9223C2.50596 15.5475 2.21085 15.0939 2.02266 14.5933C1.83666 14.1156 1.71141 13.5711 1.67391 12.7723C1.63866 11.9728 1.62891 11.7186 1.62891 9.68085C1.62891 7.6431 1.63641 7.38885 1.67391 6.58935C1.71141 5.78985 1.83666 5.24685 2.02266 4.76835C2.21033 4.26748 2.50551 3.81384 2.88741 3.43935C3.26216 3.05777 3.71573 2.76264 4.21641 2.5746C4.69491 2.3886 5.23791 2.26335 6.03741 2.22585C6.83691 2.1906 7.09116 2.18085 9.12891 2.18085ZM9.12891 5.93085C8.13434 5.93085 7.18052 6.32594 6.47726 7.0292C5.77399 7.73246 5.37891 8.68629 5.37891 9.68085C5.37891 10.6754 5.77399 11.6292 6.47726 12.3325C7.18052 13.0358 8.13434 13.4308 9.12891 13.4308C10.1235 13.4308 11.0773 13.0358 11.7806 12.3325C12.4838 11.6292 12.8789 10.6754 12.8789 9.68085C12.8789 8.68629 12.4838 7.73246 11.7806 7.0292C11.0773 6.32594 10.1235 5.93085 9.12891 5.93085ZM14.0039 5.74335C14.0039 5.49471 13.9051 5.25625 13.7293 5.08043C13.5535 4.90462 13.315 4.80585 13.0664 4.80585C12.8178 4.80585 12.5793 4.90462 12.4035 5.08043C12.2277 5.25625 12.1289 5.49471 12.1289 5.74335C12.1289 5.99199 12.2277 6.23044 12.4035 6.40626C12.5793 6.58208 12.8178 6.68085 13.0664 6.68085C13.315 6.68085 13.5535 6.58208 13.7293 6.40626C13.9051 6.23044 14.0039 5.99199 14.0039 5.74335ZM9.12891 7.43085C9.72564 7.43085 10.2979 7.6679 10.7199 8.08986C11.1419 8.51181 11.3789 9.08411 11.3789 9.68085C11.3789 10.2776 11.1419 10.8499 10.7199 11.2718C10.2979 11.6938 9.72564 11.9308 9.12891 11.9308C8.53217 11.9308 7.95987 11.6938 7.53792 11.2718C7.11596 10.8499 6.87891 10.2776 6.87891 9.68085C6.87891 9.08411 7.11596 8.51181 7.53792 8.08986C7.95987 7.6679 8.53217 7.43085 9.12891 7.43085Z" fill="#9FDCE1"/>
</g>
<defs>
<clipPath id="clip0_238_280">
<rect width="18" height="18" fill="white" transform="translate(0.128906 0.680847)"/>
</clipPath>
</defs>
</svg>
