<svg width="33" height="32" viewBox="0 0 33 32" fill="none" xmlns="http://www.w3.org/2000/svg">
<path d="M28.1289 16C28.1289 16.2652 28.0236 16.5196 27.836 16.7071C27.6485 16.8946 27.3941 17 27.1289 17H5.12891C4.86369 17 4.60934 16.8946 4.4218 16.7071C4.23426 16.5196 4.12891 16.2652 4.12891 16C4.12891 15.7348 4.23426 15.4804 4.4218 15.2929C4.60934 15.1054 4.86369 15 5.12891 15H27.1289C27.3941 15 27.6485 15.1054 27.836 15.2929C28.0236 15.4804 28.1289 15.7348 28.1289 16ZM5.12891 9H27.1289C27.3941 9 27.6485 8.89464 27.836 8.70711C28.0236 8.51957 28.1289 8.26522 28.1289 8C28.1289 7.73478 28.0236 7.48043 27.836 7.29289C27.6485 7.10536 27.3941 7 27.1289 7H5.12891C4.86369 7 4.60934 7.10536 4.4218 7.29289C4.23426 7.48043 4.12891 7.73478 4.12891 8C4.12891 8.26522 4.23426 8.51957 4.4218 8.70711C4.60934 8.89464 4.86369 9 5.12891 9ZM27.1289 23H5.12891C4.86369 23 4.60934 23.1054 4.4218 23.2929C4.23426 23.4804 4.12891 23.7348 4.12891 24C4.12891 24.2652 4.23426 24.5196 4.4218 24.7071C4.60934 24.8946 4.86369 25 5.12891 25H27.1289C27.3941 25 27.6485 24.8946 27.836 24.7071C28.0236 24.5196 28.1289 24.2652 28.1289 24C28.1289 23.7348 28.0236 23.4804 27.836 23.2929C27.6485 23.1054 27.3941 23 27.1289 23Z" fill="black"/>
</svg>
